<svg width="772" height="176" viewBox="0 0 772 176" fill="none" xmlns="http://www.w3.org/2000/svg">
<path d="M81.0873 5L2 46.6429L7.08978 131.107L81.0873 170L159 131.107V46.6429L81.0873 5Z" fill="url(#paint0_linear_1_50)" stroke="black"/>
<mask id="path-2-outside-1_1_50" maskUnits="userSpaceOnUse" x="187" y="31" width="585" height="134" fill="black">
<rect fill="white" x="187" y="31" width="585" height="134"/>
<path d="M252 80.125V89.9375H202.75V80.125H252ZM204.625 41V132H192.562V41H204.625ZM262.5 41V132H250.5V41H262.5ZM279.125 98.9375V97.5C279.125 92.625 279.833 88.1042 281.25 83.9375C282.667 79.7292 284.708 76.0833 287.375 73C290.042 69.875 293.271 67.4583 297.062 65.75C300.854 64 305.104 63.125 309.812 63.125C314.562 63.125 318.833 64 322.625 65.75C326.458 67.4583 329.708 69.875 332.375 73C335.083 76.0833 337.146 79.7292 338.562 83.9375C339.979 88.1042 340.688 92.625 340.688 97.5V98.9375C340.688 103.812 339.979 108.333 338.562 112.5C337.146 116.667 335.083 120.312 332.375 123.438C329.708 126.521 326.479 128.938 322.688 130.688C318.938 132.396 314.688 133.25 309.938 133.25C305.188 133.25 300.917 132.396 297.125 130.688C293.333 128.938 290.083 126.521 287.375 123.438C284.708 120.312 282.667 116.667 281.25 112.5C279.833 108.333 279.125 103.812 279.125 98.9375ZM290.688 97.5V98.9375C290.688 102.312 291.083 105.5 291.875 108.5C292.667 111.458 293.854 114.083 295.438 116.375C297.062 118.667 299.083 120.479 301.5 121.812C303.917 123.104 306.729 123.75 309.938 123.75C313.104 123.75 315.875 123.104 318.25 121.812C320.667 120.479 322.667 118.667 324.25 116.375C325.833 114.083 327.021 111.458 327.812 108.5C328.646 105.5 329.062 102.312 329.062 98.9375V97.5C329.062 94.1667 328.646 91.0208 327.812 88.0625C327.021 85.0625 325.812 82.4167 324.188 80.125C322.604 77.7917 320.604 75.9583 318.188 74.625C315.812 73.2917 313.021 72.625 309.812 72.625C306.646 72.625 303.854 73.2917 301.438 74.625C299.062 75.9583 297.062 77.7917 295.438 80.125C293.854 82.4167 292.667 85.0625 291.875 88.0625C291.083 91.0208 290.688 94.1667 290.688 97.5ZM355.125 36H366.75V118.875L365.75 132H355.125V36ZM412.438 97.625V98.9375C412.438 103.854 411.854 108.417 410.688 112.625C409.521 116.792 407.812 120.417 405.562 123.5C403.312 126.583 400.562 128.979 397.312 130.688C394.062 132.396 390.333 133.25 386.125 133.25C381.833 133.25 378.062 132.521 374.812 131.062C371.604 129.562 368.896 127.417 366.688 124.625C364.479 121.833 362.708 118.458 361.375 114.5C360.083 110.542 359.188 106.083 358.688 101.125V95.375C359.188 90.375 360.083 85.8958 361.375 81.9375C362.708 77.9792 364.479 74.6042 366.688 71.8125C368.896 68.9792 371.604 66.8333 374.812 65.375C378.021 63.875 381.75 63.125 386 63.125C390.25 63.125 394.021 63.9583 397.312 65.625C400.604 67.25 403.354 69.5833 405.562 72.625C407.812 75.6667 409.521 79.3125 410.688 83.5625C411.854 87.7708 412.438 92.4583 412.438 97.625ZM400.812 98.9375V97.625C400.812 94.25 400.5 91.0833 399.875 88.125C399.25 85.125 398.25 82.5 396.875 80.25C395.5 77.9583 393.688 76.1667 391.438 74.875C389.188 73.5417 386.417 72.875 383.125 72.875C380.208 72.875 377.667 73.375 375.5 74.375C373.375 75.375 371.562 76.7292 370.062 78.4375C368.562 80.1042 367.333 82.0208 366.375 84.1875C365.458 86.3125 364.771 88.5208 364.312 90.8125V105.875C364.979 108.792 366.062 111.604 367.562 114.312C369.104 116.979 371.146 119.167 373.688 120.875C376.271 122.583 379.458 123.438 383.25 123.438C386.375 123.438 389.042 122.812 391.25 121.562C393.5 120.271 395.312 118.5 396.688 116.25C398.104 114 399.146 111.396 399.812 108.438C400.479 105.479 400.812 102.312 400.812 98.9375ZM427 36H438.625V118.875L437.625 132H427V36ZM484.312 97.625V98.9375C484.312 103.854 483.729 108.417 482.562 112.625C481.396 116.792 479.688 120.417 477.438 123.5C475.188 126.583 472.438 128.979 469.188 130.688C465.938 132.396 462.208 133.25 458 133.25C453.708 133.25 449.938 132.521 446.688 131.062C443.479 129.562 440.771 127.417 438.562 124.625C436.354 121.833 434.583 118.458 433.25 114.5C431.958 110.542 431.062 106.083 430.562 101.125V95.375C431.062 90.375 431.958 85.8958 433.25 81.9375C434.583 77.9792 436.354 74.6042 438.562 71.8125C440.771 68.9792 443.479 66.8333 446.688 65.375C449.896 63.875 453.625 63.125 457.875 63.125C462.125 63.125 465.896 63.9583 469.188 65.625C472.479 67.25 475.229 69.5833 477.438 72.625C479.688 75.6667 481.396 79.3125 482.562 83.5625C483.729 87.7708 484.312 92.4583 484.312 97.625ZM472.688 98.9375V97.625C472.688 94.25 472.375 91.0833 471.75 88.125C471.125 85.125 470.125 82.5 468.75 80.25C467.375 77.9583 465.562 76.1667 463.312 74.875C461.062 73.5417 458.292 72.875 455 72.875C452.083 72.875 449.542 73.375 447.375 74.375C445.25 75.375 443.438 76.7292 441.938 78.4375C440.438 80.1042 439.208 82.0208 438.25 84.1875C437.333 86.3125 436.646 88.5208 436.188 90.8125V105.875C436.854 108.792 437.938 111.604 439.438 114.312C440.979 116.979 443.021 119.167 445.562 120.875C448.146 122.583 451.333 123.438 455.125 123.438C458.25 123.438 460.917 122.812 463.125 121.562C465.375 120.271 467.188 118.5 468.562 116.25C469.979 114 471.021 111.396 471.688 108.438C472.354 105.479 472.688 102.312 472.688 98.9375ZM517.188 125L536 64.375H548.375L521.25 142.438C520.625 144.104 519.792 145.896 518.75 147.812C517.75 149.771 516.458 151.625 514.875 153.375C513.292 155.125 511.375 156.542 509.125 157.625C506.917 158.75 504.271 159.312 501.188 159.312C500.271 159.312 499.104 159.188 497.688 158.938C496.271 158.688 495.271 158.479 494.688 158.312L494.625 148.938C494.958 148.979 495.479 149.021 496.188 149.062C496.938 149.146 497.458 149.188 497.75 149.188C500.375 149.188 502.604 148.833 504.438 148.125C506.271 147.458 507.812 146.312 509.062 144.688C510.354 143.104 511.458 140.917 512.375 138.125L517.188 125ZM503.375 64.375L520.938 116.875L523.938 129.062L515.625 133.312L490.75 64.375H503.375ZM593 89.4375H569.938L569.812 79.75H590.75C594.208 79.75 597.229 79.1667 599.812 78C602.396 76.8333 604.396 75.1667 605.812 73C607.271 70.7917 608 68.1667 608 65.125C608 61.7917 607.354 59.0833 606.062 57C604.812 54.875 602.875 53.3333 600.25 52.375C597.667 51.375 594.375 50.875 590.375 50.875H572.625V132H560.562V41H590.375C595.042 41 599.208 41.4792 602.875 42.4375C606.542 43.3542 609.646 44.8125 612.188 46.8125C614.771 48.7708 616.729 51.2708 618.062 54.3125C619.396 57.3542 620.062 61 620.062 65.25C620.062 69 619.104 72.3958 617.188 75.4375C615.271 78.4375 612.604 80.8958 609.188 82.8125C605.812 84.7292 601.854 85.9583 597.312 86.5L593 89.4375ZM592.438 132H565.188L572 122.188H592.438C596.271 122.188 599.521 121.521 602.188 120.188C604.896 118.854 606.958 116.979 608.375 114.562C609.792 112.104 610.5 109.208 610.5 105.875C610.5 102.5 609.896 99.5833 608.688 97.125C607.479 94.6667 605.583 92.7708 603 91.4375C600.417 90.1042 597.083 89.4375 593 89.4375H575.812L575.938 79.75H599.438L602 83.25C606.375 83.625 610.083 84.875 613.125 87C616.167 89.0833 618.479 91.75 620.062 95C621.688 98.25 622.5 101.833 622.5 105.75C622.5 111.417 621.25 116.208 618.75 120.125C616.292 124 612.812 126.958 608.312 129C603.812 131 598.521 132 592.438 132ZM635.5 98.9375V97.5C635.5 92.625 636.208 88.1042 637.625 83.9375C639.042 79.7292 641.083 76.0833 643.75 73C646.417 69.875 649.646 67.4583 653.438 65.75C657.229 64 661.479 63.125 666.188 63.125C670.938 63.125 675.208 64 679 65.75C682.833 67.4583 686.083 69.875 688.75 73C691.458 76.0833 693.521 79.7292 694.938 83.9375C696.354 88.1042 697.062 92.625 697.062 97.5V98.9375C697.062 103.812 696.354 108.333 694.938 112.5C693.521 116.667 691.458 120.312 688.75 123.438C686.083 126.521 682.854 128.938 679.062 130.688C675.312 132.396 671.062 133.25 666.312 133.25C661.562 133.25 657.292 132.396 653.5 130.688C649.708 128.938 646.458 126.521 643.75 123.438C641.083 120.312 639.042 116.667 637.625 112.5C636.208 108.333 635.5 103.812 635.5 98.9375ZM647.062 97.5V98.9375C647.062 102.312 647.458 105.5 648.25 108.5C649.042 111.458 650.229 114.083 651.812 116.375C653.438 118.667 655.458 120.479 657.875 121.812C660.292 123.104 663.104 123.75 666.312 123.75C669.479 123.75 672.25 123.104 674.625 121.812C677.042 120.479 679.042 118.667 680.625 116.375C682.208 114.083 683.396 111.458 684.188 108.5C685.021 105.5 685.438 102.312 685.438 98.9375V97.5C685.438 94.1667 685.021 91.0208 684.188 88.0625C683.396 85.0625 682.188 82.4167 680.562 80.125C678.979 77.7917 676.979 75.9583 674.562 74.625C672.188 73.2917 669.396 72.625 666.188 72.625C663.021 72.625 660.229 73.2917 657.812 74.625C655.438 75.9583 653.438 77.7917 651.812 80.125C650.229 82.4167 649.042 85.0625 648.25 88.0625C647.458 91.0208 647.062 94.1667 647.062 97.5ZM718 64.375L732.812 89L747.812 64.375H761.375L739.25 97.75L762.062 132H748.688L733.062 106.625L717.438 132H704L726.75 97.75L704.688 64.375H718Z"/>
</mask>
<path d="M252 80.125V89.9375H202.75V80.125H252ZM204.625 41V132H192.562V41H204.625ZM262.5 41V132H250.5V41H262.5ZM279.125 98.9375V97.5C279.125 92.625 279.833 88.1042 281.25 83.9375C282.667 79.7292 284.708 76.0833 287.375 73C290.042 69.875 293.271 67.4583 297.062 65.75C300.854 64 305.104 63.125 309.812 63.125C314.562 63.125 318.833 64 322.625 65.75C326.458 67.4583 329.708 69.875 332.375 73C335.083 76.0833 337.146 79.7292 338.562 83.9375C339.979 88.1042 340.688 92.625 340.688 97.5V98.9375C340.688 103.812 339.979 108.333 338.562 112.5C337.146 116.667 335.083 120.312 332.375 123.438C329.708 126.521 326.479 128.938 322.688 130.688C318.938 132.396 314.688 133.25 309.938 133.25C305.188 133.25 300.917 132.396 297.125 130.688C293.333 128.938 290.083 126.521 287.375 123.438C284.708 120.312 282.667 116.667 281.25 112.5C279.833 108.333 279.125 103.812 279.125 98.9375ZM290.688 97.5V98.9375C290.688 102.312 291.083 105.5 291.875 108.5C292.667 111.458 293.854 114.083 295.438 116.375C297.062 118.667 299.083 120.479 301.5 121.812C303.917 123.104 306.729 123.75 309.938 123.75C313.104 123.75 315.875 123.104 318.25 121.812C320.667 120.479 322.667 118.667 324.25 116.375C325.833 114.083 327.021 111.458 327.812 108.5C328.646 105.5 329.062 102.312 329.062 98.9375V97.5C329.062 94.1667 328.646 91.0208 327.812 88.0625C327.021 85.0625 325.812 82.4167 324.188 80.125C322.604 77.7917 320.604 75.9583 318.188 74.625C315.812 73.2917 313.021 72.625 309.812 72.625C306.646 72.625 303.854 73.2917 301.438 74.625C299.062 75.9583 297.062 77.7917 295.438 80.125C293.854 82.4167 292.667 85.0625 291.875 88.0625C291.083 91.0208 290.688 94.1667 290.688 97.5ZM355.125 36H366.75V118.875L365.75 132H355.125V36ZM412.438 97.625V98.9375C412.438 103.854 411.854 108.417 410.688 112.625C409.521 116.792 407.812 120.417 405.562 123.5C403.312 126.583 400.562 128.979 397.312 130.688C394.062 132.396 390.333 133.25 386.125 133.25C381.833 133.25 378.062 132.521 374.812 131.062C371.604 129.562 368.896 127.417 366.688 124.625C364.479 121.833 362.708 118.458 361.375 114.5C360.083 110.542 359.188 106.083 358.688 101.125V95.375C359.188 90.375 360.083 85.8958 361.375 81.9375C362.708 77.9792 364.479 74.6042 366.688 71.8125C368.896 68.9792 371.604 66.8333 374.812 65.375C378.021 63.875 381.75 63.125 386 63.125C390.25 63.125 394.021 63.9583 397.312 65.625C400.604 67.25 403.354 69.5833 405.562 72.625C407.812 75.6667 409.521 79.3125 410.688 83.5625C411.854 87.7708 412.438 92.4583 412.438 97.625ZM400.812 98.9375V97.625C400.812 94.25 400.5 91.0833 399.875 88.125C399.25 85.125 398.25 82.5 396.875 80.25C395.5 77.9583 393.688 76.1667 391.438 74.875C389.188 73.5417 386.417 72.875 383.125 72.875C380.208 72.875 377.667 73.375 375.5 74.375C373.375 75.375 371.562 76.7292 370.062 78.4375C368.562 80.1042 367.333 82.0208 366.375 84.1875C365.458 86.3125 364.771 88.5208 364.312 90.8125V105.875C364.979 108.792 366.062 111.604 367.562 114.312C369.104 116.979 371.146 119.167 373.688 120.875C376.271 122.583 379.458 123.438 383.25 123.438C386.375 123.438 389.042 122.812 391.25 121.562C393.5 120.271 395.312 118.5 396.688 116.25C398.104 114 399.146 111.396 399.812 108.438C400.479 105.479 400.812 102.312 400.812 98.9375ZM427 36H438.625V118.875L437.625 132H427V36ZM484.312 97.625V98.9375C484.312 103.854 483.729 108.417 482.562 112.625C481.396 116.792 479.688 120.417 477.438 123.5C475.188 126.583 472.438 128.979 469.188 130.688C465.938 132.396 462.208 133.25 458 133.25C453.708 133.25 449.938 132.521 446.688 131.062C443.479 129.562 440.771 127.417 438.562 124.625C436.354 121.833 434.583 118.458 433.25 114.5C431.958 110.542 431.062 106.083 430.562 101.125V95.375C431.062 90.375 431.958 85.8958 433.25 81.9375C434.583 77.9792 436.354 74.6042 438.562 71.8125C440.771 68.9792 443.479 66.8333 446.688 65.375C449.896 63.875 453.625 63.125 457.875 63.125C462.125 63.125 465.896 63.9583 469.188 65.625C472.479 67.25 475.229 69.5833 477.438 72.625C479.688 75.6667 481.396 79.3125 482.562 83.5625C483.729 87.7708 484.312 92.4583 484.312 97.625ZM472.688 98.9375V97.625C472.688 94.25 472.375 91.0833 471.75 88.125C471.125 85.125 470.125 82.5 468.75 80.25C467.375 77.9583 465.562 76.1667 463.312 74.875C461.062 73.5417 458.292 72.875 455 72.875C452.083 72.875 449.542 73.375 447.375 74.375C445.25 75.375 443.438 76.7292 441.938 78.4375C440.438 80.1042 439.208 82.0208 438.25 84.1875C437.333 86.3125 436.646 88.5208 436.188 90.8125V105.875C436.854 108.792 437.938 111.604 439.438 114.312C440.979 116.979 443.021 119.167 445.562 120.875C448.146 122.583 451.333 123.438 455.125 123.438C458.25 123.438 460.917 122.812 463.125 121.562C465.375 120.271 467.188 118.5 468.562 116.25C469.979 114 471.021 111.396 471.688 108.438C472.354 105.479 472.688 102.312 472.688 98.9375ZM517.188 125L536 64.375H548.375L521.25 142.438C520.625 144.104 519.792 145.896 518.75 147.812C517.75 149.771 516.458 151.625 514.875 153.375C513.292 155.125 511.375 156.542 509.125 157.625C506.917 158.75 504.271 159.312 501.188 159.312C500.271 159.312 499.104 159.188 497.688 158.938C496.271 158.688 495.271 158.479 494.688 158.312L494.625 148.938C494.958 148.979 495.479 149.021 496.188 149.062C496.938 149.146 497.458 149.188 497.75 149.188C500.375 149.188 502.604 148.833 504.438 148.125C506.271 147.458 507.812 146.312 509.062 144.688C510.354 143.104 511.458 140.917 512.375 138.125L517.188 125ZM503.375 64.375L520.938 116.875L523.938 129.062L515.625 133.312L490.75 64.375H503.375ZM593 89.4375H569.938L569.812 79.75H590.75C594.208 79.75 597.229 79.1667 599.812 78C602.396 76.8333 604.396 75.1667 605.812 73C607.271 70.7917 608 68.1667 608 65.125C608 61.7917 607.354 59.0833 606.062 57C604.812 54.875 602.875 53.3333 600.25 52.375C597.667 51.375 594.375 50.875 590.375 50.875H572.625V132H560.562V41H590.375C595.042 41 599.208 41.4792 602.875 42.4375C606.542 43.3542 609.646 44.8125 612.188 46.8125C614.771 48.7708 616.729 51.2708 618.062 54.3125C619.396 57.3542 620.062 61 620.062 65.25C620.062 69 619.104 72.3958 617.188 75.4375C615.271 78.4375 612.604 80.8958 609.188 82.8125C605.812 84.7292 601.854 85.9583 597.312 86.5L593 89.4375ZM592.438 132H565.188L572 122.188H592.438C596.271 122.188 599.521 121.521 602.188 120.188C604.896 118.854 606.958 116.979 608.375 114.562C609.792 112.104 610.5 109.208 610.5 105.875C610.5 102.5 609.896 99.5833 608.688 97.125C607.479 94.6667 605.583 92.7708 603 91.4375C600.417 90.1042 597.083 89.4375 593 89.4375H575.812L575.938 79.75H599.438L602 83.25C606.375 83.625 610.083 84.875 613.125 87C616.167 89.0833 618.479 91.75 620.062 95C621.688 98.25 622.5 101.833 622.5 105.75C622.5 111.417 621.25 116.208 618.75 120.125C616.292 124 612.812 126.958 608.312 129C603.812 131 598.521 132 592.438 132ZM635.5 98.9375V97.5C635.5 92.625 636.208 88.1042 637.625 83.9375C639.042 79.7292 641.083 76.0833 643.75 73C646.417 69.875 649.646 67.4583 653.438 65.75C657.229 64 661.479 63.125 666.188 63.125C670.938 63.125 675.208 64 679 65.75C682.833 67.4583 686.083 69.875 688.75 73C691.458 76.0833 693.521 79.7292 694.938 83.9375C696.354 88.1042 697.062 92.625 697.062 97.5V98.9375C697.062 103.812 696.354 108.333 694.938 112.5C693.521 116.667 691.458 120.312 688.75 123.438C686.083 126.521 682.854 128.938 679.062 130.688C675.312 132.396 671.062 133.25 666.312 133.25C661.562 133.25 657.292 132.396 653.5 130.688C649.708 128.938 646.458 126.521 643.75 123.438C641.083 120.312 639.042 116.667 637.625 112.5C636.208 108.333 635.5 103.812 635.5 98.9375ZM647.062 97.5V98.9375C647.062 102.312 647.458 105.5 648.25 108.5C649.042 111.458 650.229 114.083 651.812 116.375C653.438 118.667 655.458 120.479 657.875 121.812C660.292 123.104 663.104 123.75 666.312 123.75C669.479 123.75 672.25 123.104 674.625 121.812C677.042 120.479 679.042 118.667 680.625 116.375C682.208 114.083 683.396 111.458 684.188 108.5C685.021 105.5 685.438 102.312 685.438 98.9375V97.5C685.438 94.1667 685.021 91.0208 684.188 88.0625C683.396 85.0625 682.188 82.4167 680.562 80.125C678.979 77.7917 676.979 75.9583 674.562 74.625C672.188 73.2917 669.396 72.625 666.188 72.625C663.021 72.625 660.229 73.2917 657.812 74.625C655.438 75.9583 653.438 77.7917 651.812 80.125C650.229 82.4167 649.042 85.0625 648.25 88.0625C647.458 91.0208 647.062 94.1667 647.062 97.5ZM718 64.375L732.812 89L747.812 64.375H761.375L739.25 97.75L762.062 132H748.688L733.062 106.625L717.438 132H704L726.75 97.75L704.688 64.375H718Z" fill="url(#paint1_linear_1_50)"/>
<path d="M252 80.125H257V75.125H252V80.125ZM252 89.9375V94.9375H257V89.9375H252ZM202.75 89.9375H197.75V94.9375H202.75V89.9375ZM202.75 80.125V75.125H197.75V80.125H202.75ZM204.625 41H209.625V36H204.625V41ZM204.625 132V137H209.625V132H204.625ZM192.562 132H187.562V137H192.562V132ZM192.562 41V36H187.562V41H192.562ZM262.5 41H267.5V36H262.5V41ZM262.5 132V137H267.5V132H262.5ZM250.5 132H245.5V137H250.5V132ZM250.5 41V36H245.5V41H250.5ZM247 80.125V89.9375H257V80.125H247ZM252 84.9375H202.75V94.9375H252V84.9375ZM207.75 89.9375V80.125H197.75V89.9375H207.75ZM202.75 85.125H252V75.125H202.75V85.125ZM199.625 41V132H209.625V41H199.625ZM204.625 127H192.562V137H204.625V127ZM197.562 132V41H187.562V132H197.562ZM192.562 46H204.625V36H192.562V46ZM257.5 41V132H267.5V41H257.5ZM262.5 127H250.5V137H262.5V127ZM255.5 132V41H245.5V132H255.5ZM250.5 46H262.5V36H250.5V46ZM281.25 83.9375L285.984 85.547L285.986 85.5399L285.989 85.5327L281.25 83.9375ZM287.375 73L291.157 76.2708L291.168 76.2582L291.178 76.2456L287.375 73ZM297.062 65.75L299.116 70.3087L299.137 70.2993L299.158 70.2898L297.062 65.75ZM322.625 65.75L320.53 70.2898L320.56 70.3036L320.59 70.317L322.625 65.75ZM332.375 73L328.572 76.2456L328.595 76.2728L328.618 76.2997L332.375 73ZM338.562 83.9375L333.824 85.5327L333.826 85.5399L333.829 85.547L338.562 83.9375ZM338.562 112.5L333.829 110.89L338.562 112.5ZM332.375 123.438L328.597 120.163L328.593 120.167L332.375 123.438ZM322.688 130.688L324.76 135.238L324.772 135.232L324.783 135.227L322.688 130.688ZM297.125 130.688L295.03 135.227L295.05 135.237L295.071 135.246L297.125 130.688ZM287.375 123.438L283.572 126.683L283.595 126.71L283.618 126.737L287.375 123.438ZM291.875 108.5L287.04 109.776L287.043 109.784L287.045 109.793L291.875 108.5ZM295.438 116.375L291.324 119.217L291.341 119.242L291.359 119.267L295.438 116.375ZM301.5 121.812L299.085 126.19L299.114 126.206L299.143 126.222L301.5 121.812ZM318.25 121.812L320.639 126.205L320.652 126.198L320.665 126.19L318.25 121.812ZM327.812 108.5L322.995 107.162L322.989 107.185L322.982 107.207L327.812 108.5ZM327.812 88.0625L322.978 89.3383L322.989 89.3783L323 89.4182L327.812 88.0625ZM324.188 80.125L320.05 82.9325L320.079 82.9751L320.109 83.0171L324.188 80.125ZM318.188 74.625L315.74 78.9849L315.756 78.994L315.772 79.0029L318.188 74.625ZM301.438 74.625L299.022 70.2471L299.006 70.256L298.99 70.2651L301.438 74.625ZM295.438 80.125L291.334 77.2675L291.329 77.2752L291.324 77.2828L295.438 80.125ZM291.875 88.0625L296.705 89.355L296.707 89.3467L296.71 89.3383L291.875 88.0625ZM284.125 98.9375V97.5H274.125V98.9375H284.125ZM284.125 97.5C284.125 93.1139 284.761 89.1427 285.984 85.547L276.516 82.328C274.905 87.0657 274.125 92.1361 274.125 97.5H284.125ZM285.989 85.5327C287.217 81.8845 288.951 78.8208 291.157 76.2708L283.593 69.7292C280.465 73.3459 278.117 77.5739 276.511 82.3423L285.989 85.5327ZM291.178 76.2456C293.36 73.6892 295.989 71.7177 299.116 70.3087L295.009 61.1913C290.553 63.199 286.723 66.0608 283.572 69.7544L291.178 76.2456ZM299.158 70.2898C302.213 68.8795 305.735 68.125 309.812 68.125V58.125C304.473 58.125 299.495 59.1205 294.967 61.2102L299.158 70.2898ZM309.812 68.125C313.938 68.125 317.48 68.8821 320.53 70.2898L324.72 61.2102C320.187 59.1179 315.187 58.125 309.812 58.125V68.125ZM320.59 70.317C323.758 71.7288 326.399 73.6998 328.572 76.2456L336.178 69.7544C333.018 66.0502 329.159 63.1878 324.66 61.183L320.59 70.317ZM328.618 76.2997C330.855 78.8459 332.601 81.9001 333.824 85.5327L343.301 82.3423C341.691 77.5583 339.312 73.3207 336.132 69.7003L328.618 76.2997ZM333.829 85.547C335.051 89.1427 335.688 93.1139 335.688 97.5H345.688C345.688 92.1361 344.907 87.0657 343.296 82.328L333.829 85.547ZM335.688 97.5V98.9375H345.688V97.5H335.688ZM335.688 98.9375C335.688 103.324 335.051 107.295 333.829 110.89L343.296 114.11C344.907 109.372 345.688 104.301 345.688 98.9375H335.688ZM333.829 110.89C332.606 114.485 330.855 117.557 328.597 120.163L336.153 126.712C339.311 123.068 341.685 118.848 343.296 114.11L333.829 110.89ZM328.593 120.167C326.404 122.699 323.754 124.688 320.592 126.148L324.783 135.227C329.204 133.187 333.013 130.343 336.157 126.708L328.593 120.167ZM320.615 126.137C317.608 127.507 314.081 128.25 309.938 128.25V138.25C315.294 138.25 320.267 137.284 324.76 135.238L320.615 126.137ZM309.938 128.25C305.795 128.25 302.239 127.508 299.179 126.129L295.071 135.246C299.594 137.284 304.58 138.25 309.938 138.25V128.25ZM299.22 126.148C296.051 124.685 293.371 122.687 291.132 120.138L283.618 126.737C286.796 130.355 290.615 133.19 295.03 135.227L299.22 126.148ZM291.178 120.192C288.951 117.582 287.211 114.501 285.984 110.89L276.516 114.11C278.122 118.832 280.465 123.043 283.572 126.683L291.178 120.192ZM285.984 110.89C284.761 107.295 284.125 103.324 284.125 98.9375H274.125C274.125 104.301 274.905 109.372 276.516 114.11L285.984 110.89ZM285.688 97.5V98.9375H295.688V97.5H285.688ZM285.688 98.9375C285.688 102.706 286.13 106.325 287.04 109.776L296.71 107.224C296.037 104.675 295.688 101.919 295.688 98.9375H285.688ZM287.045 109.793C287.97 113.25 289.384 116.409 291.324 119.217L299.551 113.533C298.324 111.757 297.363 109.667 296.705 107.207L287.045 109.793ZM291.359 119.267C293.411 122.162 295.997 124.487 299.085 126.19L303.915 117.435C302.17 116.472 300.714 115.172 299.516 113.483L291.359 119.267ZM299.143 126.222C302.4 127.963 306.048 128.75 309.938 128.75V118.75C307.411 118.75 305.434 118.246 303.857 117.403L299.143 126.222ZM309.938 128.75C313.795 128.75 317.414 127.959 320.639 126.205L315.861 117.42C314.336 118.25 312.413 118.75 309.938 118.75V128.75ZM320.665 126.19C323.766 124.48 326.345 122.139 328.364 119.217L320.136 113.533C318.988 115.194 317.568 116.478 315.835 117.435L320.665 126.19ZM328.364 119.217C330.304 116.409 331.717 113.25 332.643 109.793L322.982 107.207C322.324 109.667 321.363 111.757 320.136 113.533L328.364 119.217ZM332.63 109.838C333.594 106.368 334.062 102.727 334.062 98.9375H324.062C324.062 101.898 323.698 104.632 322.995 107.162L332.63 109.838ZM334.062 98.9375V97.5H324.062V98.9375H334.062ZM334.062 97.5C334.062 93.7468 333.593 90.1419 332.625 86.7068L323 89.4182C323.699 91.8998 324.062 94.5865 324.062 97.5H334.062ZM332.647 86.7867C331.718 83.2674 330.272 80.0621 328.266 77.2329L320.109 83.0171C321.353 84.7712 322.323 86.8576 322.978 89.3383L332.647 86.7867ZM328.325 77.3175C326.309 74.347 323.725 71.9694 320.603 70.2471L315.772 79.0029C317.484 79.9473 318.899 81.2363 320.05 82.9325L328.325 77.3175ZM320.635 70.2651C317.39 68.443 313.725 67.625 309.812 67.625V77.625C312.317 77.625 314.235 78.1404 315.74 78.9849L320.635 70.2651ZM309.812 67.625C305.927 67.625 302.281 68.449 299.022 70.2471L303.853 79.0029C305.427 78.1344 307.365 77.625 309.812 77.625V67.625ZM298.99 70.2651C295.928 71.9842 293.371 74.3429 291.334 77.2675L299.541 82.9825C300.754 81.2405 302.197 79.9324 303.885 78.9849L298.99 70.2651ZM291.324 77.2828C289.376 80.1021 287.963 83.2902 287.04 86.7867L296.71 89.3383C297.37 86.8348 298.332 84.7313 299.551 82.9672L291.324 77.2828ZM287.045 86.77C286.131 90.1853 285.688 93.7685 285.688 97.5H295.688C295.688 94.5648 296.036 91.8564 296.705 89.355L287.045 86.77ZM355.125 36V31H350.125V36H355.125ZM366.75 36H371.75V31H366.75V36ZM366.75 118.875L371.736 119.255L371.75 119.065V118.875H366.75ZM365.75 132V137H370.384L370.736 132.38L365.75 132ZM355.125 132H350.125V137H355.125V132ZM410.688 112.625L415.502 113.973L415.506 113.961L410.688 112.625ZM374.812 131.062L372.695 135.592L372.73 135.608L372.766 135.624L374.812 131.062ZM361.375 114.5L356.622 116.051L356.629 116.074L356.637 116.096L361.375 114.5ZM358.688 101.125H353.688V101.376L353.713 101.627L358.688 101.125ZM358.688 95.375L353.712 94.8775L353.688 95.1256V95.375H358.688ZM361.375 81.9375L356.637 80.3414L356.629 80.3639L356.622 80.3864L361.375 81.9375ZM366.688 71.8125L370.609 74.9145L370.62 74.9004L370.631 74.8862L366.688 71.8125ZM374.812 65.375L376.882 69.9268L376.906 69.9158L376.93 69.9044L374.812 65.375ZM397.312 65.625L395.054 70.0858L395.076 70.0972L395.099 70.1084L397.312 65.625ZM405.562 72.625L401.516 75.5626L401.53 75.5806L401.543 75.5985L405.562 72.625ZM410.688 83.5625L405.866 84.8861L405.869 84.8983L410.688 83.5625ZM399.875 88.125L394.98 89.1448L394.983 89.1585L399.875 88.125ZM396.875 80.25L392.588 82.8225L392.598 82.8399L392.609 82.8573L396.875 80.25ZM391.438 74.875L388.888 79.1765L388.918 79.1941L388.948 79.2113L391.438 74.875ZM375.5 74.375L373.405 69.8352L373.388 69.843L373.371 69.8509L375.5 74.375ZM370.062 78.4375L373.779 81.7823L373.799 81.7595L373.82 81.7365L370.062 78.4375ZM366.375 84.1875L361.802 82.165L361.793 82.186L361.784 82.207L366.375 84.1875ZM364.312 90.8125L359.41 89.8319L359.312 90.3174V90.8125H364.312ZM364.312 105.875H359.312V106.439L359.438 106.989L364.312 105.875ZM367.562 114.312L363.189 116.735L363.211 116.775L363.234 116.815L367.562 114.312ZM373.688 120.875L370.898 125.025L370.914 125.035L370.93 125.046L373.688 120.875ZM391.25 121.562L393.713 125.914L393.726 125.906L393.739 125.899L391.25 121.562ZM396.688 116.25L392.456 113.586L392.439 113.614L392.421 113.643L396.688 116.25ZM355.125 41H366.75V31H355.125V41ZM361.75 36V118.875H371.75V36H361.75ZM361.764 118.495L360.764 131.62L370.736 132.38L371.736 119.255L361.764 118.495ZM365.75 127H355.125V137H365.75V127ZM360.125 132V36H350.125V132H360.125ZM407.438 97.625V98.9375H417.438V97.625H407.438ZM407.438 98.9375C407.438 103.459 406.901 107.567 405.869 111.289L415.506 113.961C416.807 109.267 417.438 104.25 417.438 98.9375H407.438ZM405.873 111.277C404.846 114.944 403.378 118.012 401.524 120.553L409.601 126.447C412.247 122.822 414.196 118.639 415.502 113.973L405.873 111.277ZM401.524 120.553C399.706 123.044 397.533 124.923 394.986 126.262L399.639 135.113C403.592 133.035 406.919 130.123 409.601 126.447L401.524 120.553ZM394.986 126.262C392.552 127.541 389.642 128.25 386.125 128.25V138.25C391.025 138.25 395.573 137.251 399.639 135.113L394.986 126.262ZM386.125 128.25C382.397 128.25 379.348 127.617 376.859 126.501L372.766 135.624C376.777 137.424 381.27 138.25 386.125 138.25V128.25ZM376.93 126.533C374.43 125.364 372.338 123.708 370.609 121.523L362.766 127.727C365.454 131.125 368.779 133.761 372.695 135.592L376.93 126.533ZM370.609 121.523C368.813 119.253 367.294 116.41 366.113 112.904L356.637 116.096C358.122 120.507 360.145 124.413 362.766 127.727L370.609 121.523ZM366.128 112.949C364.967 109.39 364.133 105.292 363.662 100.623L353.713 101.627C354.242 106.874 355.2 111.693 356.622 116.051L366.128 112.949ZM363.688 101.125V95.375H353.688V101.125H363.688ZM363.663 95.8725C364.134 91.1598 364.968 87.0431 366.128 83.4886L356.622 80.3864C355.198 84.7486 354.241 89.5902 353.712 94.8775L363.663 95.8725ZM366.113 83.5336C367.294 80.028 368.813 77.1843 370.609 74.9145L362.766 68.7105C360.145 72.0241 358.122 75.9304 356.637 80.3414L366.113 83.5336ZM370.631 74.8862C372.353 72.6769 374.423 71.0444 376.882 69.9268L372.743 60.8232C368.785 62.6223 365.439 65.2814 362.744 68.7388L370.631 74.8862ZM376.93 69.9044C379.356 68.7701 382.338 68.125 386 68.125V58.125C381.162 58.125 376.685 58.9799 372.695 60.8456L376.93 69.9044ZM386 68.125C389.585 68.125 392.562 68.8239 395.054 70.0858L399.571 61.1642C395.48 59.0927 390.915 58.125 386 58.125V68.125ZM395.099 70.1084C397.646 71.3656 399.773 73.1609 401.516 75.5626L409.609 69.6874C406.936 66.0058 403.563 63.1344 399.526 61.1416L395.099 70.1084ZM401.543 75.5985C403.371 78.0698 404.836 81.1343 405.866 84.8861L415.509 82.2389C414.206 77.4907 412.254 73.2635 409.582 69.6515L401.543 75.5985ZM405.869 84.8983C406.896 88.6007 407.438 92.8298 407.438 97.625H417.438C417.438 92.0869 416.813 86.941 415.506 82.2267L405.869 84.8983ZM405.812 98.9375V97.625H395.812V98.9375H405.812ZM405.812 97.625C405.812 93.9422 405.472 90.4262 404.767 87.0915L394.983 89.1585C395.528 91.7404 395.812 94.5578 395.812 97.625H405.812ZM404.77 87.1052C404.047 83.6332 402.859 80.4542 401.141 77.6427L392.609 82.8573C393.641 84.5458 394.453 86.6168 394.98 89.1448L404.77 87.1052ZM401.162 77.6775C399.362 74.6771 396.94 72.2684 393.927 70.5387L388.948 79.2113C390.435 80.0649 391.638 81.2396 392.588 82.8225L401.162 77.6775ZM393.987 70.5735C390.789 68.6788 387.084 67.875 383.125 67.875V77.875C385.749 77.875 387.586 78.4046 388.888 79.1765L393.987 70.5735ZM383.125 67.875C379.642 67.875 376.358 68.4723 373.405 69.8352L377.595 78.9148C378.976 78.2777 380.774 77.875 383.125 77.875V67.875ZM373.371 69.8509C370.646 71.1333 368.273 72.8972 366.305 75.1385L373.82 81.7365C374.852 80.5611 376.104 79.6167 377.629 78.8991L373.371 69.8509ZM366.346 75.0927C364.473 77.1738 362.962 79.5425 361.802 82.165L370.948 86.21C371.704 84.4991 372.652 83.0345 373.779 81.7823L366.346 75.0927ZM361.784 82.207C360.727 84.6567 359.936 87.2004 359.41 89.8319L369.215 91.7931C369.606 89.8413 370.189 87.9683 370.966 86.168L361.784 82.207ZM359.312 90.8125V105.875H369.312V90.8125H359.312ZM359.438 106.989C360.213 110.379 361.469 113.631 363.189 116.735L371.936 111.89C370.656 109.578 369.745 107.204 369.187 104.761L359.438 106.989ZM363.234 116.815C365.154 120.137 367.721 122.889 370.898 125.025L376.477 116.725C374.571 115.444 373.054 113.822 371.891 111.81L363.234 116.815ZM370.93 125.046C374.498 127.405 378.699 128.438 383.25 128.438V118.438C380.217 118.438 378.044 117.761 376.445 116.704L370.93 125.046ZM383.25 128.438C387.04 128.438 390.598 127.677 393.713 125.914L388.787 117.211C387.485 117.948 385.71 118.438 383.25 118.438V128.438ZM393.739 125.899C396.73 124.182 399.149 121.811 400.954 118.857L392.421 113.643C391.476 115.189 390.27 116.36 388.761 117.226L393.739 125.899ZM400.919 118.914C402.678 116.121 403.916 112.973 404.69 109.537L394.935 107.338C394.376 109.819 393.531 111.879 392.456 113.586L400.919 118.914ZM404.69 109.537C405.447 106.18 405.812 102.641 405.812 98.9375H395.812C395.812 101.984 395.512 104.779 394.935 107.338L404.69 109.537ZM427 36V31H422V36H427ZM438.625 36H443.625V31H438.625V36ZM438.625 118.875L443.611 119.255L443.625 119.065V118.875H438.625ZM437.625 132V137H442.259L442.611 132.38L437.625 132ZM427 132H422V137H427V132ZM482.562 112.625L487.377 113.973L487.381 113.961L482.562 112.625ZM446.688 131.062L444.57 135.592L444.605 135.608L444.641 135.624L446.688 131.062ZM433.25 114.5L428.497 116.051L428.504 116.074L428.512 116.096L433.25 114.5ZM430.562 101.125H425.562V101.376L425.588 101.627L430.562 101.125ZM430.562 95.375L425.587 94.8775L425.562 95.1256V95.375H430.562ZM433.25 81.9375L428.512 80.3414L428.504 80.3639L428.497 80.3864L433.25 81.9375ZM438.562 71.8125L442.484 74.9145L442.495 74.9004L442.506 74.8862L438.562 71.8125ZM446.688 65.375L448.757 69.9268L448.781 69.9158L448.805 69.9044L446.688 65.375ZM469.188 65.625L466.929 70.0858L466.951 70.0972L466.974 70.1084L469.188 65.625ZM477.438 72.625L473.391 75.5626L473.405 75.5806L473.418 75.5985L477.438 72.625ZM482.562 83.5625L477.741 84.8861L477.744 84.8983L482.562 83.5625ZM471.75 88.125L466.855 89.1448L466.858 89.1585L471.75 88.125ZM468.75 80.25L464.463 82.8225L464.473 82.8399L464.484 82.8573L468.75 80.25ZM463.312 74.875L460.763 79.1765L460.793 79.1941L460.823 79.2113L463.312 74.875ZM447.375 74.375L445.28 69.8352L445.263 69.843L445.246 69.8509L447.375 74.375ZM441.938 78.4375L445.654 81.7823L445.674 81.7595L445.695 81.7365L441.938 78.4375ZM438.25 84.1875L433.677 82.165L433.668 82.186L433.659 82.207L438.25 84.1875ZM436.188 90.8125L431.285 89.8319L431.188 90.3174V90.8125H436.188ZM436.188 105.875H431.188V106.439L431.313 106.989L436.188 105.875ZM439.438 114.312L435.064 116.735L435.086 116.775L435.109 116.815L439.438 114.312ZM445.562 120.875L442.773 125.025L442.789 125.035L442.805 125.046L445.562 120.875ZM463.125 121.562L465.588 125.914L465.601 125.906L465.614 125.899L463.125 121.562ZM468.562 116.25L464.331 113.586L464.314 113.614L464.296 113.643L468.562 116.25ZM427 41H438.625V31H427V41ZM433.625 36V118.875H443.625V36H433.625ZM433.639 118.495L432.639 131.62L442.611 132.38L443.611 119.255L433.639 118.495ZM437.625 127H427V137H437.625V127ZM432 132V36H422V132H432ZM479.312 97.625V98.9375H489.312V97.625H479.312ZM479.312 98.9375C479.312 103.459 478.776 107.567 477.744 111.289L487.381 113.961C488.682 109.267 489.312 104.25 489.312 98.9375H479.312ZM477.748 111.277C476.721 114.944 475.253 118.012 473.399 120.553L481.476 126.447C484.122 122.822 486.071 118.639 487.377 113.973L477.748 111.277ZM473.399 120.553C471.581 123.044 469.408 124.923 466.861 126.262L471.514 135.113C475.467 133.035 478.794 130.123 481.476 126.447L473.399 120.553ZM466.861 126.262C464.427 127.541 461.517 128.25 458 128.25V138.25C462.9 138.25 467.448 137.251 471.514 135.113L466.861 126.262ZM458 128.25C454.272 128.25 451.223 127.617 448.734 126.501L444.641 135.624C448.652 137.424 453.145 138.25 458 138.25V128.25ZM448.805 126.533C446.305 125.364 444.213 123.708 442.484 121.523L434.641 127.727C437.329 131.125 440.654 133.761 444.57 135.592L448.805 126.533ZM442.484 121.523C440.688 119.253 439.169 116.41 437.988 112.904L428.512 116.096C429.997 120.507 432.02 124.413 434.641 127.727L442.484 121.523ZM438.003 112.949C436.842 109.39 436.008 105.292 435.537 100.623L425.588 101.627C426.117 106.874 427.075 111.693 428.497 116.051L438.003 112.949ZM435.562 101.125V95.375H425.562V101.125H435.562ZM435.538 95.8725C436.009 91.1598 436.843 87.0431 438.003 83.4886L428.497 80.3864C427.073 84.7486 426.116 89.5902 425.587 94.8775L435.538 95.8725ZM437.988 83.5336C439.169 80.028 440.688 77.1843 442.484 74.9145L434.641 68.7105C432.02 72.0241 429.997 75.9304 428.512 80.3414L437.988 83.5336ZM442.506 74.8862C444.228 72.6769 446.298 71.0444 448.757 69.9268L444.618 60.8232C440.66 62.6223 437.314 65.2814 434.619 68.7388L442.506 74.8862ZM448.805 69.9044C451.231 68.7701 454.213 68.125 457.875 68.125V58.125C453.037 58.125 448.56 58.9799 444.57 60.8456L448.805 69.9044ZM457.875 68.125C461.46 68.125 464.437 68.8239 466.929 70.0858L471.446 61.1642C467.355 59.0927 462.79 58.125 457.875 58.125V68.125ZM466.974 70.1084C469.521 71.3656 471.648 73.1609 473.391 75.5626L481.484 69.6874C478.811 66.0058 475.438 63.1344 471.401 61.1416L466.974 70.1084ZM473.418 75.5985C475.246 78.0698 476.711 81.1343 477.741 84.8861L487.384 82.2389C486.081 77.4907 484.129 73.2635 481.457 69.6515L473.418 75.5985ZM477.744 84.8983C478.771 88.6007 479.312 92.8298 479.312 97.625H489.312C489.312 92.0869 488.688 86.941 487.381 82.2267L477.744 84.8983ZM477.688 98.9375V97.625H467.688V98.9375H477.688ZM477.688 97.625C477.688 93.9422 477.347 90.4262 476.642 87.0915L466.858 89.1585C467.403 91.7404 467.688 94.5578 467.688 97.625H477.688ZM476.645 87.1052C475.922 83.6332 474.734 80.4542 473.016 77.6427L464.484 82.8573C465.516 84.5458 466.328 86.6168 466.855 89.1448L476.645 87.1052ZM473.037 77.6775C471.237 74.6771 468.815 72.2684 465.802 70.5387L460.823 79.2113C462.31 80.0649 463.513 81.2396 464.463 82.8225L473.037 77.6775ZM465.862 70.5735C462.664 68.6788 458.959 67.875 455 67.875V77.875C457.624 77.875 459.461 78.4046 460.763 79.1765L465.862 70.5735ZM455 67.875C451.517 67.875 448.233 68.4723 445.28 69.8352L449.47 78.9148C450.851 78.2777 452.649 77.875 455 77.875V67.875ZM445.246 69.8509C442.521 71.1333 440.148 72.8972 438.18 75.1385L445.695 81.7365C446.727 80.5611 447.979 79.6167 449.504 78.8991L445.246 69.8509ZM438.221 75.0927C436.348 77.1738 434.837 79.5425 433.677 82.165L442.823 86.21C443.579 84.4991 444.527 83.0345 445.654 81.7823L438.221 75.0927ZM433.659 82.207C432.602 84.6567 431.811 87.2004 431.285 89.8319L441.09 91.7931C441.481 89.8413 442.064 87.9683 442.841 86.168L433.659 82.207ZM431.188 90.8125V105.875H441.188V90.8125H431.188ZM431.313 106.989C432.088 110.379 433.344 113.631 435.064 116.735L443.811 111.89C442.531 109.578 441.62 107.204 441.062 104.761L431.313 106.989ZM435.109 116.815C437.029 120.137 439.596 122.889 442.773 125.025L448.352 116.725C446.446 115.444 444.929 113.822 443.766 111.81L435.109 116.815ZM442.805 125.046C446.373 127.405 450.574 128.438 455.125 128.438V118.438C452.092 118.438 449.919 117.761 448.32 116.704L442.805 125.046ZM455.125 128.438C458.915 128.438 462.473 127.677 465.588 125.914L460.662 117.211C459.36 117.948 457.585 118.438 455.125 118.438V128.438ZM465.614 125.899C468.605 124.182 471.024 121.811 472.829 118.857L464.296 113.643C463.351 115.189 462.145 116.36 460.636 117.226L465.614 125.899ZM472.794 118.914C474.553 116.121 475.791 112.973 476.565 109.537L466.81 107.338C466.251 109.819 465.406 111.879 464.331 113.586L472.794 118.914ZM476.565 109.537C477.322 106.18 477.688 102.641 477.688 98.9375H467.688C467.688 101.984 467.387 104.779 466.81 107.338L476.565 109.537ZM517.188 125L521.882 126.721L521.925 126.603L521.963 126.482L517.188 125ZM536 64.375V59.375H532.316L531.225 62.8932L536 64.375ZM548.375 64.375L553.098 66.0161L555.406 59.375H548.375V64.375ZM521.25 142.438L525.932 144.193L525.953 144.136L525.973 144.079L521.25 142.438ZM518.75 147.812L514.357 145.425L514.326 145.481L514.297 145.539L518.75 147.812ZM509.125 157.625L506.956 153.12L506.905 153.144L506.855 153.17L509.125 157.625ZM494.688 158.312L489.688 158.346L489.713 162.091L493.314 163.12L494.688 158.312ZM494.625 148.938L495.245 143.976L489.587 143.269L489.625 148.971L494.625 148.938ZM496.188 149.062L496.74 144.093L496.611 144.079L496.481 144.071L496.188 149.062ZM504.438 148.125L502.729 143.426L502.682 143.443L502.636 143.461L504.438 148.125ZM509.062 144.688L505.188 141.527L505.143 141.582L505.099 141.639L509.062 144.688ZM512.375 138.125L507.681 136.404L507.651 136.484L507.625 136.565L512.375 138.125ZM503.375 64.375L508.117 62.7888L506.975 59.375H503.375V64.375ZM520.938 116.875L525.793 115.68L525.744 115.482L525.679 115.289L520.938 116.875ZM523.938 129.062L526.214 133.514L529.739 131.712L528.793 127.867L523.938 129.062ZM515.625 133.312L510.922 135.01L512.848 140.348L517.901 137.764L515.625 133.312ZM490.75 64.375V59.375H483.63L486.047 66.0721L490.75 64.375ZM521.963 126.482L540.775 65.8568L531.225 62.8932L512.412 123.518L521.963 126.482ZM536 69.375H548.375V59.375H536V69.375ZM543.652 62.7339L516.527 140.796L525.973 144.079L553.098 66.0161L543.652 62.7339ZM516.568 140.682C516.04 142.09 515.311 143.668 514.357 145.425L523.143 150.2C524.272 148.123 525.21 146.119 525.932 144.193L516.568 140.682ZM514.297 145.539C513.511 147.078 512.477 148.573 511.167 150.02L518.583 156.73C520.439 154.677 521.989 152.464 523.203 150.086L514.297 145.539ZM511.167 150.02C510.043 151.264 508.658 152.301 506.956 153.12L511.294 162.13C514.092 160.783 516.541 158.986 518.583 156.73L511.167 150.02ZM506.855 153.17C505.501 153.86 503.671 154.312 501.188 154.312V164.312C504.871 164.312 508.333 163.64 511.395 162.08L506.855 153.17ZM501.188 154.312C500.678 154.312 499.828 154.238 498.556 154.014L496.819 163.861C498.38 164.137 499.864 164.312 501.188 164.312V154.312ZM498.556 154.014C497.143 153.764 496.37 153.593 496.061 153.505L493.314 163.12C494.171 163.365 495.399 163.611 496.819 163.861L498.556 154.014ZM499.687 158.279L499.625 148.904L489.625 148.971L489.688 158.346L499.687 158.279ZM494.005 153.899C494.51 153.962 495.168 154.011 495.894 154.054L496.481 144.071C495.79 144.03 495.406 143.996 495.245 143.976L494.005 153.899ZM495.635 154.032C496.37 154.114 497.146 154.188 497.75 154.188V144.188C497.802 144.188 497.753 144.189 497.539 144.172C497.347 144.157 497.084 144.131 496.74 144.093L495.635 154.032ZM497.75 154.188C500.797 154.188 503.674 153.78 506.239 152.789L502.636 143.461C501.534 143.886 499.953 144.188 497.75 144.188V154.188ZM506.146 152.824C508.919 151.816 511.227 150.074 513.026 147.736L505.099 141.639C504.398 142.551 503.623 143.101 502.729 143.426L506.146 152.824ZM512.937 147.848C514.746 145.63 516.094 142.825 517.125 139.685L507.625 136.565C506.822 139.008 505.962 140.578 505.188 141.527L512.937 147.848ZM517.069 139.846L521.882 126.721L512.493 123.279L507.681 136.404L517.069 139.846ZM498.633 65.9612L516.196 118.461L525.679 115.289L508.117 62.7888L498.633 65.9612ZM516.082 118.07L519.082 130.258L528.793 127.867L525.793 115.68L516.082 118.07ZM521.661 124.611L513.349 128.861L517.901 137.764L526.214 133.514L521.661 124.611ZM520.328 131.615L495.453 62.6779L486.047 66.0721L510.922 135.01L520.328 131.615ZM490.75 69.375H503.375V59.375H490.75V69.375ZM593 89.4375V94.4375H594.541L595.815 93.5699L593 89.4375ZM569.938 89.4375L564.938 89.502L565.002 94.4375H569.938V89.4375ZM569.812 79.75V74.75H564.748L564.813 79.8145L569.812 79.75ZM605.812 73L601.64 70.2447L601.634 70.2542L601.628 70.2638L605.812 73ZM606.062 57L601.753 59.5351L601.782 59.5852L601.813 59.6347L606.062 57ZM600.25 52.375L598.445 57.0378L598.49 57.0552L598.535 57.0718L600.25 52.375ZM572.625 50.875V45.875H567.625V50.875H572.625ZM572.625 132V137H577.625V132H572.625ZM560.562 132H555.562V137H560.562V132ZM560.562 41V36H555.562V41H560.562ZM602.875 42.4375L601.611 47.275L601.636 47.2817L601.662 47.2882L602.875 42.4375ZM612.188 46.8125L609.096 50.7419L609.131 50.7698L609.167 50.797L612.188 46.8125ZM617.188 75.4375L621.401 78.1294L621.409 78.1163L621.418 78.1031L617.188 75.4375ZM609.188 82.8125L606.741 78.4518L606.73 78.4582L606.718 78.4647L609.188 82.8125ZM597.312 86.5L596.72 81.5352L595.507 81.6799L594.498 82.3676L597.312 86.5ZM565.188 132L561.08 129.149L555.629 137H565.188V132ZM572 122.188V117.188H569.384L567.893 119.336L572 122.188ZM602.188 120.188L599.979 115.702L599.965 115.708L599.951 115.715L602.188 120.188ZM608.375 114.562L612.688 117.091L612.698 117.075L612.707 117.059L608.375 114.562ZM575.812 89.4375L570.813 89.373L570.748 94.4375H575.812V89.4375ZM575.938 79.75V74.75H571.002L570.938 79.6855L575.938 79.75ZM599.438 79.75L603.472 76.7963L601.974 74.75H599.438V79.75ZM602 83.25L597.966 86.2037L599.308 88.0376L601.573 88.2317L602 83.25ZM613.125 87L610.261 91.0988L610.28 91.1121L610.3 91.1251L613.125 87ZM620.062 95L615.568 97.1898L615.579 97.213L615.59 97.2361L620.062 95ZM618.75 120.125L614.535 117.435L614.528 117.447L618.75 120.125ZM608.312 129L610.343 133.569L610.361 133.561L610.378 133.553L608.312 129ZM593 84.4375H569.938V94.4375H593V84.4375ZM574.937 89.373L574.812 79.6855L564.813 79.8145L564.938 89.502L574.937 89.373ZM569.812 84.75H590.75V74.75H569.812V84.75ZM590.75 84.75C594.765 84.75 598.514 84.0725 601.87 82.5569L597.755 73.4431C595.944 74.2608 593.651 74.75 590.75 74.75V84.75ZM601.87 82.5569C605.236 81.0369 608.01 78.775 609.997 75.7362L601.628 70.2638C600.781 71.5583 599.556 72.6298 597.755 73.4431L601.87 82.5569ZM609.985 75.7553C612.06 72.6124 613 68.996 613 65.125H603C603 67.3373 602.481 68.9709 601.64 70.2447L609.985 75.7553ZM613 65.125C613 61.1844 612.241 57.476 610.312 54.3653L601.813 59.6347C602.468 60.6906 603 62.3989 603 65.125H613ZM610.372 54.4649C608.456 51.2074 605.525 48.9781 601.965 47.6782L598.535 57.0718C600.225 57.6886 601.169 58.5426 601.753 59.5351L610.372 54.4649ZM602.055 47.7122C598.701 46.4138 594.741 45.875 590.375 45.875V55.875C594.009 55.875 596.632 56.3362 598.445 57.0378L602.055 47.7122ZM590.375 45.875H572.625V55.875H590.375V45.875ZM567.625 50.875V132H577.625V50.875H567.625ZM572.625 127H560.562V137H572.625V127ZM565.562 132V41H555.562V132H565.562ZM560.562 46H590.375V36H560.562V46ZM590.375 46C594.709 46 598.439 46.446 601.611 47.275L604.139 37.6C599.978 36.5123 595.374 36 590.375 36V46ZM601.662 47.2882C604.759 48.0624 607.194 49.2455 609.096 50.7419L615.279 42.8831C612.098 40.3795 608.324 38.646 604.088 37.5868L601.662 47.2882ZM609.167 50.797C611.053 52.2271 612.484 54.0395 613.483 56.3199L622.642 52.3051C620.975 48.5022 618.488 45.3146 615.208 42.828L609.167 50.797ZM613.483 56.3199C614.473 58.5782 615.062 61.5052 615.062 65.25H625.062C625.062 60.4948 624.319 56.1302 622.642 52.3051L613.483 56.3199ZM615.062 65.25C615.062 68.0993 614.349 70.5637 612.957 72.7719L621.418 78.1031C623.86 74.228 625.062 69.9007 625.062 65.25H615.062ZM612.974 72.7456C611.543 74.9847 609.514 76.8963 606.741 78.4518L611.634 87.1732C615.694 84.8954 618.998 81.8903 621.401 78.1294L612.974 72.7456ZM606.718 78.4647C604.015 79.9997 600.718 81.0585 596.72 81.5352L597.905 91.4648C602.991 90.8582 607.61 89.4586 611.657 87.1603L606.718 78.4647ZM594.498 82.3676L590.185 85.3051L595.815 93.5699L600.127 90.6324L594.498 82.3676ZM592.438 127H565.188V137H592.438V127ZM569.295 134.851L576.107 125.039L567.893 119.336L561.08 129.149L569.295 134.851ZM572 127.188H592.438V117.188H572V127.188ZM592.438 127.188C596.832 127.188 600.893 126.425 604.424 124.66L599.951 115.715C598.148 116.617 595.709 117.188 592.438 117.188V127.188ZM604.396 124.673C607.911 122.943 610.738 120.418 612.688 117.091L604.062 112.034C603.179 113.54 601.881 114.766 599.979 115.702L604.396 124.673ZM612.707 117.059C614.632 113.718 615.5 109.93 615.5 105.875H605.5C605.5 108.486 604.951 110.49 604.043 112.066L612.707 117.059ZM615.5 105.875C615.5 101.909 614.79 98.2048 613.175 94.9194L604.2 99.3306C605.002 100.962 605.5 103.091 605.5 105.875H615.5ZM613.175 94.9194C611.464 91.4385 608.767 88.7871 605.293 86.9944L600.707 95.8806C602.4 96.7545 603.495 97.8948 604.2 99.3306L613.175 94.9194ZM605.293 86.9944C601.773 85.1775 597.578 84.4375 593 84.4375V94.4375C596.589 94.4375 599.06 95.0309 600.707 95.8806L605.293 86.9944ZM593 84.4375H575.812V94.4375H593V84.4375ZM580.812 89.502L580.937 79.8145L570.938 79.6855L570.813 89.373L580.812 89.502ZM575.938 84.75H599.438V74.75H575.938V84.75ZM595.403 82.7037L597.966 86.2037L606.034 80.2963L603.472 76.7963L595.403 82.7037ZM601.573 88.2317C605.234 88.5455 608.062 89.5625 610.261 91.0988L615.989 82.9012C612.104 80.1875 607.516 78.7045 602.427 78.2683L601.573 88.2317ZM610.3 91.1251C612.641 92.7291 614.371 94.7347 615.568 97.1898L624.557 92.8102C622.587 88.7653 619.692 85.4376 615.95 82.8749L610.3 91.1251ZM615.59 97.2361C616.842 99.7386 617.5 102.548 617.5 105.75H627.5C627.5 101.119 626.533 96.7614 624.535 92.7639L615.59 97.2361ZM617.5 105.75C617.5 110.674 616.42 114.482 614.535 117.435L622.965 122.815C626.08 117.934 627.5 112.16 627.5 105.75H617.5ZM614.528 117.447C612.631 120.437 609.932 122.775 606.247 124.447L610.378 133.553C615.693 131.142 619.952 127.563 622.972 122.803L614.528 117.447ZM606.282 124.431C602.553 126.088 597.981 127 592.438 127V137C599.06 137 605.072 135.912 610.343 133.569L606.282 124.431ZM637.625 83.9375L642.359 85.547L642.361 85.5399L642.364 85.5327L637.625 83.9375ZM643.75 73L647.532 76.2708L647.543 76.2582L647.553 76.2456L643.75 73ZM653.438 65.75L655.491 70.3087L655.512 70.2993L655.533 70.2898L653.438 65.75ZM679 65.75L676.905 70.2898L676.935 70.3036L676.965 70.317L679 65.75ZM688.75 73L684.947 76.2456L684.97 76.2728L684.993 76.2997L688.75 73ZM694.938 83.9375L690.199 85.5327L690.201 85.5399L690.204 85.547L694.938 83.9375ZM694.938 112.5L690.204 110.89L694.938 112.5ZM688.75 123.438L684.972 120.163L684.968 120.167L688.75 123.438ZM679.062 130.688L681.135 135.238L681.147 135.232L681.158 135.227L679.062 130.688ZM653.5 130.688L651.405 135.227L651.425 135.237L651.446 135.246L653.5 130.688ZM643.75 123.438L639.947 126.683L639.97 126.71L639.993 126.737L643.75 123.438ZM648.25 108.5L643.415 109.776L643.418 109.784L643.42 109.793L648.25 108.5ZM651.812 116.375L647.699 119.217L647.716 119.242L647.734 119.267L651.812 116.375ZM657.875 121.812L655.46 126.19L655.489 126.206L655.518 126.222L657.875 121.812ZM674.625 121.812L677.014 126.205L677.027 126.198L677.04 126.19L674.625 121.812ZM684.188 108.5L679.37 107.162L679.364 107.185L679.357 107.207L684.188 108.5ZM684.188 88.0625L679.353 89.3383L679.364 89.3783L679.375 89.4182L684.188 88.0625ZM680.562 80.125L676.425 82.9325L676.454 82.9751L676.484 83.0171L680.562 80.125ZM674.562 74.625L672.115 78.9849L672.131 78.994L672.147 79.0029L674.562 74.625ZM657.812 74.625L655.397 70.2471L655.381 70.256L655.365 70.2651L657.812 74.625ZM651.812 80.125L647.709 77.2675L647.704 77.2752L647.699 77.2828L651.812 80.125ZM648.25 88.0625L653.08 89.355L653.082 89.3467L653.085 89.3383L648.25 88.0625ZM640.5 98.9375V97.5H630.5V98.9375H640.5ZM640.5 97.5C640.5 93.1139 641.136 89.1427 642.359 85.547L632.891 82.328C631.28 87.0657 630.5 92.1361 630.5 97.5H640.5ZM642.364 85.5327C643.592 81.8845 645.326 78.8208 647.532 76.2708L639.968 69.7292C636.84 73.3459 634.492 77.5739 632.886 82.3423L642.364 85.5327ZM647.553 76.2456C649.735 73.6892 652.364 71.7177 655.491 70.3087L651.384 61.1913C646.928 63.199 643.098 66.0608 639.947 69.7544L647.553 76.2456ZM655.533 70.2898C658.588 68.8795 662.11 68.125 666.188 68.125V58.125C660.848 58.125 655.87 59.1205 651.342 61.2102L655.533 70.2898ZM666.188 68.125C670.313 68.125 673.855 68.8821 676.905 70.2898L681.095 61.2102C676.562 59.1179 671.562 58.125 666.188 58.125V68.125ZM676.965 70.317C680.133 71.7288 682.774 73.6998 684.947 76.2456L692.553 69.7544C689.393 66.0502 685.534 63.1878 681.035 61.183L676.965 70.317ZM684.993 76.2997C687.23 78.8459 688.976 81.9001 690.199 85.5327L699.676 82.3423C698.066 77.5583 695.687 73.3207 692.507 69.7003L684.993 76.2997ZM690.204 85.547C691.426 89.1427 692.062 93.1139 692.062 97.5H702.062C702.062 92.1361 701.282 87.0657 699.671 82.328L690.204 85.547ZM692.062 97.5V98.9375H702.062V97.5H692.062ZM692.062 98.9375C692.062 103.324 691.426 107.295 690.204 110.89L699.671 114.11C701.282 109.372 702.062 104.301 702.062 98.9375H692.062ZM690.204 110.89C688.981 114.485 687.23 117.557 684.972 120.163L692.528 126.712C695.686 123.068 698.06 118.848 699.671 114.11L690.204 110.89ZM684.968 120.167C682.779 122.699 680.129 124.688 676.967 126.148L681.158 135.227C685.579 133.187 689.388 130.343 692.532 126.708L684.968 120.167ZM676.99 126.137C673.983 127.507 670.456 128.25 666.312 128.25V138.25C671.669 138.25 676.642 137.284 681.135 135.238L676.99 126.137ZM666.312 128.25C662.17 128.25 658.614 127.508 655.554 126.129L651.446 135.246C655.969 137.284 660.955 138.25 666.312 138.25V128.25ZM655.595 126.148C652.426 124.685 649.746 122.687 647.507 120.138L639.993 126.737C643.171 130.355 646.99 133.19 651.405 135.227L655.595 126.148ZM647.553 120.192C645.326 117.582 643.586 114.501 642.359 110.89L632.891 114.11C634.497 118.832 636.84 123.043 639.947 126.683L647.553 120.192ZM642.359 110.89C641.136 107.295 640.5 103.324 640.5 98.9375H630.5C630.5 104.301 631.28 109.372 632.891 114.11L642.359 110.89ZM642.062 97.5V98.9375H652.062V97.5H642.062ZM642.062 98.9375C642.062 102.706 642.505 106.325 643.415 109.776L653.085 107.224C652.412 104.675 652.062 101.919 652.062 98.9375H642.062ZM643.42 109.793C644.345 113.25 645.759 116.409 647.699 119.217L655.926 113.533C654.699 111.757 653.738 109.667 653.08 107.207L643.42 109.793ZM647.734 119.267C649.786 122.162 652.372 124.487 655.46 126.19L660.29 117.435C658.545 116.472 657.089 115.172 655.891 113.483L647.734 119.267ZM655.518 126.222C658.775 127.963 662.423 128.75 666.312 128.75V118.75C663.786 118.75 661.809 118.246 660.232 117.403L655.518 126.222ZM666.312 128.75C670.17 128.75 673.789 127.959 677.014 126.205L672.236 117.42C670.711 118.25 668.788 118.75 666.312 118.75V128.75ZM677.04 126.19C680.141 124.48 682.72 122.139 684.739 119.217L676.511 113.533C675.363 115.194 673.943 116.478 672.21 117.435L677.04 126.19ZM684.739 119.217C686.679 116.409 688.092 113.25 689.018 109.793L679.357 107.207C678.699 109.667 677.738 111.757 676.511 113.533L684.739 119.217ZM689.005 109.838C689.969 106.368 690.438 102.727 690.438 98.9375H680.438C680.438 101.898 680.073 104.632 679.37 107.162L689.005 109.838ZM690.438 98.9375V97.5H680.438V98.9375H690.438ZM690.438 97.5C690.438 93.7468 689.968 90.1419 689 86.7068L679.375 89.4182C680.074 91.8998 680.438 94.5865 680.438 97.5H690.438ZM689.022 86.7867C688.093 83.2674 686.647 80.0621 684.641 77.2329L676.484 83.0171C677.728 84.7712 678.698 86.8576 679.353 89.3383L689.022 86.7867ZM684.7 77.3175C682.684 74.347 680.1 71.9694 676.978 70.2471L672.147 79.0029C673.859 79.9473 675.274 81.2363 676.425 82.9325L684.7 77.3175ZM677.01 70.2651C673.765 68.443 670.1 67.625 666.188 67.625V77.625C668.692 77.625 670.61 78.1404 672.115 78.9849L677.01 70.2651ZM666.188 67.625C662.302 67.625 658.656 68.449 655.397 70.2471L660.228 79.0029C661.802 78.1344 663.74 77.625 666.188 77.625V67.625ZM655.365 70.2651C652.303 71.9842 649.746 74.3429 647.709 77.2675L655.916 82.9825C657.129 81.2405 658.572 79.9324 660.26 78.9849L655.365 70.2651ZM647.699 77.2828C645.751 80.1021 644.338 83.2902 643.415 86.7867L653.085 89.3383C653.745 86.8348 654.707 84.7313 655.926 82.9672L647.699 77.2828ZM643.42 86.77C642.506 90.1853 642.062 93.7685 642.062 97.5H652.062C652.062 94.5648 652.411 91.8564 653.08 89.355L643.42 86.77ZM718 64.375L722.285 61.7977L720.827 59.375H718V64.375ZM732.812 89L728.528 91.5773L732.786 98.6554L737.083 91.6011L732.812 89ZM747.812 64.375V59.375H745.004L743.542 61.7739L747.812 64.375ZM761.375 64.375L765.542 67.1377L770.688 59.375H761.375V64.375ZM739.25 97.75L735.083 94.9873L733.247 97.7565L735.089 100.522L739.25 97.75ZM762.062 132V137H771.4L766.224 129.228L762.062 132ZM748.688 132L744.43 134.622L745.894 137H748.688V132ZM733.062 106.625L737.32 104.003L733.062 97.089L728.805 104.003L733.062 106.625ZM717.438 132V137H720.231L721.695 134.622L717.438 132ZM704 132L699.835 129.234L694.676 137H704V132ZM726.75 97.75L730.915 100.516L732.748 97.7566L730.921 94.9927L726.75 97.75ZM704.688 64.375V59.375H695.389L700.516 67.1323L704.688 64.375ZM713.715 66.9523L728.528 91.5773L737.097 86.4227L722.285 61.7977L713.715 66.9523ZM737.083 91.6011L752.083 66.9761L743.542 61.7739L728.542 86.3989L737.083 91.6011ZM747.812 69.375H761.375V59.375H747.812V69.375ZM757.208 61.6123L735.083 94.9873L743.417 100.513L765.542 67.1377L757.208 61.6123ZM735.089 100.522L757.901 134.772L766.224 129.228L743.411 94.9783L735.089 100.522ZM762.062 127H748.688V137H762.062V127ZM752.945 129.378L737.32 104.003L728.805 109.247L744.43 134.622L752.945 129.378ZM728.805 104.003L713.18 129.378L721.695 134.622L737.32 109.247L728.805 104.003ZM717.438 127H704V137H717.438V127ZM708.165 134.766L730.915 100.516L722.585 94.9835L699.835 129.234L708.165 134.766ZM730.921 94.9927L708.859 61.6177L700.516 67.1323L722.579 100.507L730.921 94.9927ZM704.688 69.375H718V59.375H704.688V69.375Z" fill="black" mask="url(#path-2-outside-1_1_50)"/>
<path d="M157.914 40.4592L86.1944 1.20008C84.7551 0.412693 83.1407 0 81.5 0C79.8593 0 78.2449 0.412693 76.8056 1.20008L5.0856 40.4592C3.54704 41.3009 2.26315 42.5407 1.36843 44.0488C0.4737 45.557 0.00105565 47.2779 0 49.0314V126.963C0.00105565 128.716 0.4737 130.437 1.36843 131.945C2.26315 133.454 3.54704 134.693 5.0856 135.535L76.8056 174.794C78.2438 175.585 79.8586 176 81.5 176C83.1414 176 84.7562 175.585 86.1944 174.794L157.914 135.535C159.453 134.693 160.737 133.454 161.632 131.945C162.526 130.437 162.999 128.716 163 126.963V49.0314C162.999 47.2779 162.526 45.557 161.632 44.0488C160.737 42.5407 159.453 41.3009 157.914 40.4592ZM79.9352 6.92028C80.4135 6.65339 80.9522 6.51328 81.5 6.51328C82.0478 6.51328 82.5865 6.65339 83.0648 6.92028L153.766 45.6253L122.658 62.6474C122.51 62.525 122.352 62.416 122.185 62.3214L50.4648 23.0623L79.9352 6.92028ZM81.5 85.1452L9.23395 45.6253L43.6514 26.778L115.917 66.3305L81.5 85.1452ZM8.2152 129.799C7.70315 129.518 7.27571 129.106 6.97752 128.604C6.67933 128.103 6.52133 127.53 6.52 126.947V51.5655L78.24 90.8083V168.145L8.2152 129.799ZM154.785 129.799L84.76 168.096V90.8083L117.36 72.9714V107.553C117.36 108.418 117.703 109.247 118.315 109.858C118.926 110.469 119.755 110.813 120.62 110.813C121.485 110.813 122.314 110.469 122.925 109.858C123.537 109.247 123.88 108.418 123.88 107.553V69.4024L156.48 51.5655V126.963C156.479 127.546 156.321 128.119 156.022 128.621C155.724 129.122 155.297 129.535 154.785 129.815V129.799Z" fill="black"/>
<defs>
<linearGradient id="paint0_linear_1_50" x1="17.6608" y1="74.5357" x2="161.349" y2="72.5848" gradientUnits="userSpaceOnUse">
<stop stop-color="#FFD392"/>
<stop offset="1" stop-color="#FFB85D"/>
</linearGradient>
<linearGradient id="paint1_linear_1_50" x1="182" y1="88" x2="765" y2="88" gradientUnits="userSpaceOnUse">
<stop stop-color="#FFB95E"/>
<stop offset="1" stop-color="#FF501B"/>
</linearGradient>
</defs>
</svg>
