<svg width="163" height="176" viewBox="0 0 163 176" fill="none" xmlns="http://www.w3.org/2000/svg">
<path d="M81.0873 5L2 46.6429L7.08978 131.107L81.0873 170L159 131.107V46.6429L81.0873 5Z" fill="url(#paint0_linear_8_2)" stroke="black"/>
<path d="M157.914 40.4592L86.1944 1.20008C84.7551 0.412693 83.1407 0 81.5 0C79.8593 0 78.2449 0.412693 76.8056 1.20008L5.0856 40.4592C3.54704 41.3009 2.26315 42.5407 1.36843 44.0488C0.4737 45.557 0.00105565 47.2779 0 49.0314V126.963C0.00105565 128.716 0.4737 130.437 1.36843 131.945C2.26315 133.454 3.54704 134.693 5.0856 135.535L76.8056 174.794C78.2438 175.585 79.8586 176 81.5 176C83.1414 176 84.7562 175.585 86.1944 174.794L157.914 135.535C159.453 134.693 160.737 133.454 161.632 131.945C162.526 130.437 162.999 128.716 163 126.963V49.0314C162.999 47.2779 162.526 45.557 161.632 44.0488C160.737 42.5407 159.453 41.3009 157.914 40.4592ZM79.9352 6.92028C80.4135 6.65339 80.9522 6.51328 81.5 6.51328C82.0478 6.51328 82.5865 6.65339 83.0648 6.92028L153.766 45.6253L122.658 62.6474C122.51 62.525 122.352 62.416 122.185 62.3214L50.4648 23.0623L79.9352 6.92028ZM81.5 85.1452L9.23395 45.6253L43.6514 26.778L115.917 66.3305L81.5 85.1452ZM8.2152 129.799C7.70315 129.518 7.27571 129.106 6.97752 128.604C6.67933 128.103 6.52133 127.53 6.52 126.947V51.5655L78.24 90.8083V168.145L8.2152 129.799ZM154.785 129.799L84.76 168.096V90.8083L117.36 72.9714V107.553C117.36 108.418 117.703 109.247 118.315 109.858C118.926 110.469 119.755 110.813 120.62 110.813C121.485 110.813 122.314 110.469 122.925 109.858C123.537 109.247 123.88 108.418 123.88 107.553V69.4024L156.48 51.5655V126.963C156.479 127.546 156.321 128.119 156.022 128.621C155.724 129.122 155.297 129.535 154.785 129.815V129.799Z" fill="black"/>
<defs>
<linearGradient id="paint0_linear_8_2" x1="17.6608" y1="74.5357" x2="161.349" y2="72.5848" gradientUnits="userSpaceOnUse">
<stop stop-color="#FFD392"/>
<stop offset="1" stop-color="#FFB85D"/>
</linearGradient>
</defs>
</svg>
